name rise30.8019peak61.5557fall86.2505.mot
datacolumns 19
datarows 21
range 11.54662300000000 11.57996300000000
endheader
time	ground_force1_vx	ground_force1_vy	ground_force1_vz	ground_force1_px	ground_force1_py	ground_force1_pz	ground_force2_vx	ground_force2_vy	ground_force2_vz	ground_force2_px	ground_force2_py	ground_force2_pz	ground_torque1_x	ground_torque1_y	ground_torque1_z	ground_torque2_x	ground_torque2_y	ground_torque2_z	
11.54662300000000	-9.97928000000000	700.10444500000006	30.15215100000000	0.10748700000000	0.00000000000000	0.09272800000000	0.00000000000000	0.00000000000000	0.00000000000000	0.00000000000000	0.00000000000000	0.00000000000000	0.00000000000000	10.51987200000000	0.00000000000000	0.00000000000000	0.00000000000000	0.00000000000000	
11.54829000000000	-10.41256400000000	700.53789200000006	30.15587300000000	0.10646300000000	0.00000000000000	0.09273800000000	0.00000000000000	0.00000000000000	0.00000000000000	0.00000000000000	0.00000000000000	0.00000000000000	0.00000000000000	10.57187400000000	0.00000000000000	0.00000000000000	0.00000000000000	0.00000000000000	
11.54995600000000	-10.84723600000000	700.96013000000005	30.16371300000000	0.10544600000000	0.00000000000000	0.09274900000000	0.00000000000000	0.00000000000000	0.00000000000000	0.00000000000000	0.00000000000000	0.00000000000000	0.00000000000000	10.62533500000000	0.00000000000000	0.00000000000000	0.00000000000000	0.00000000000000	
11.55162600000000	-11.28329400000000	701.37223400000005	30.17579300000000	0.10443700000000	0.00000000000000	0.09276100000000	0.00000000000000	0.00000000000000	0.00000000000000	0.00000000000000	0.00000000000000	0.00000000000000	0.00000000000000	10.68027000000000	0.00000000000000	0.00000000000000	0.00000000000000	0.00000000000000	
11.55329000000000	-11.72074700000000	701.77539100000001	30.19222500000000	0.10343600000000	0.00000000000000	0.09277300000000	0.00000000000000	0.00000000000000	0.00000000000000	0.00000000000000	0.00000000000000	0.00000000000000	0.00000000000000	10.73669000000000	0.00000000000000	0.00000000000000	0.00000000000000	0.00000000000000	
11.55496300000000	-12.15961100000000	702.17089499999997	30.21311300000000	0.10244200000000	0.00000000000000	0.09278600000000	0.00000000000000	0.00000000000000	0.00000000000000	0.00000000000000	0.00000000000000	0.00000000000000	0.00000000000000	10.79460400000000	0.00000000000000	0.00000000000000	0.00000000000000	0.00000000000000	
11.55663000000000	-12.59991000000000	702.56014400000004	30.23855400000000	0.10145500000000	0.00000000000000	0.09279900000000	0.00000000000000	0.00000000000000	0.00000000000000	0.00000000000000	0.00000000000000	0.00000000000000	0.00000000000000	10.85402000000000	0.00000000000000	0.00000000000000	0.00000000000000	0.00000000000000	
11.55829500000000	-13.04167600000000	702.94463299999995	30.26863400000000	0.10047500000000	0.00000000000000	0.09281300000000	0.00000000000000	0.00000000000000	0.00000000000000	0.00000000000000	0.00000000000000	0.00000000000000	0.00000000000000	10.91494300000000	0.00000000000000	0.00000000000000	0.00000000000000	0.00000000000000	
11.55995900000000	-13.48494600000000	703.32594400000005	30.30343100000000	0.09950200000000	0.00000000000000	0.09282800000000	0.00000000000000	0.00000000000000	0.00000000000000	0.00000000000000	0.00000000000000	0.00000000000000	0.00000000000000	10.97737500000000	0.00000000000000	0.00000000000000	0.00000000000000	0.00000000000000	
11.56162800000000	-13.92976700000000	703.70574299999998	30.34301100000000	0.09853500000000	0.00000000000000	0.09284400000000	0.00000000000000	0.00000000000000	0.00000000000000	0.00000000000000	0.00000000000000	0.00000000000000	0.00000000000000	11.04131600000000	0.00000000000000	0.00000000000000	0.00000000000000	0.00000000000000	
11.56329500000000	-14.37619000000000	704.08576800000003	30.38743300000000	0.09757500000000	0.00000000000000	0.09286000000000	0.00000000000000	0.00000000000000	0.00000000000000	0.00000000000000	0.00000000000000	0.00000000000000	0.00000000000000	11.10676200000000	0.00000000000000	0.00000000000000	0.00000000000000	0.00000000000000	
11.56496000000000	-14.82426900000000	704.46782299999995	30.43674400000000	0.09662000000000	0.00000000000000	0.09287800000000	0.00000000000000	0.00000000000000	0.00000000000000	0.00000000000000	0.00000000000000	0.00000000000000	0.00000000000000	11.17370700000000	0.00000000000000	0.00000000000000	0.00000000000000	0.00000000000000	
11.56662500000000	-15.27406600000000	704.85377300000005	30.49098400000000	0.09567100000000	0.00000000000000	0.09289600000000	0.00000000000000	0.00000000000000	0.00000000000000	0.00000000000000	0.00000000000000	0.00000000000000	0.00000000000000	11.24214200000000	0.00000000000000	0.00000000000000	0.00000000000000	0.00000000000000	
11.56829000000000	-15.72564400000000	705.24552800000004	30.55018100000000	0.09472800000000	0.00000000000000	0.09291500000000	0.00000000000000	0.00000000000000	0.00000000000000	0.00000000000000	0.00000000000000	0.00000000000000	0.00000000000000	11.31205200000000	0.00000000000000	0.00000000000000	0.00000000000000	0.00000000000000	
11.56996200000000	-16.17906800000000	705.64503900000000	30.61435400000000	0.09378900000000	0.00000000000000	0.09293500000000	0.00000000000000	0.00000000000000	0.00000000000000	0.00000000000000	0.00000000000000	0.00000000000000	0.00000000000000	11.38342300000000	0.00000000000000	0.00000000000000	0.00000000000000	0.00000000000000	
11.57162300000000	-16.63440500000000	706.05429000000004	30.68351400000000	0.09285500000000	0.00000000000000	0.09295600000000	0.00000000000000	0.00000000000000	0.00000000000000	0.00000000000000	0.00000000000000	0.00000000000000	0.00000000000000	11.45623300000000	0.00000000000000	0.00000000000000	0.00000000000000	0.00000000000000	
11.57329600000000	-17.09172400000000	706.47528199999999	30.75766300000000	0.09192500000000	0.00000000000000	0.09297700000000	0.00000000000000	0.00000000000000	0.00000000000000	0.00000000000000	0.00000000000000	0.00000000000000	0.00000000000000	11.53045800000000	0.00000000000000	0.00000000000000	0.00000000000000	0.00000000000000	
11.57496200000000	-17.55108900000000	706.91003200000000	30.83679500000000	0.09100000000000	0.00000000000000	0.09300000000000	0.00000000000000	0.00000000000000	0.00000000000000	0.00000000000000	0.00000000000000	0.00000000000000	0.00000000000000	11.60607200000000	0.00000000000000	0.00000000000000	0.00000000000000	0.00000000000000	
11.57662500000000	-18.01256600000000	707.36055699999997	30.92089500000000	0.09007700000000	0.00000000000000	0.09302400000000	0.00000000000000	0.00000000000000	0.00000000000000	0.00000000000000	0.00000000000000	0.00000000000000	0.00000000000000	11.68304200000000	0.00000000000000	0.00000000000000	0.00000000000000	0.00000000000000	
11.57829100000000	-18.47621500000000	707.82886599999995	31.00994200000000	0.08915800000000	0.00000000000000	0.09304900000000	0.00000000000000	0.00000000000000	0.00000000000000	0.00000000000000	0.00000000000000	0.00000000000000	0.00000000000000	11.76133200000000	0.00000000000000	0.00000000000000	0.00000000000000	0.00000000000000	
11.57996300000000	-18.94209300000000	708.31695400000001	31.10390800000000	0.08824300000000	0.00000000000000	0.09307400000000	0.00000000000000	0.00000000000000	0.00000000000000	0.00000000000000	0.00000000000000	0.00000000000000	0.00000000000000	11.84090300000000	0.00000000000000	0.00000000000000	0.00000000000000	0.00000000000000	
